<svg xmlns="http://www.w3.org/2000/svg" xmlns:xlink="http://www.w3.org/1999/xlink" version="1.1" preserveAspectRatio="none" x="0px" y="0px" viewBox="0 0 100 125">
   <defs>
      <!-- css -->
      <g id="css">
         <path id="svg-icon" stroke="none" d=" M 36.75 5.05 Q 33.3 5.15 30.55 5.75 27.65 6.35 25.55 7.65 19.85 10.95 19.05 18.95 18.7 21.95 19.05 25.95 19.25 28.05 19.9 32.6 20.4 36.05 20.5 37.2 20.85 40.6 20.45 41.6 19.6 43.65 18 44.75 15.85 46.3 11.95 46.45 L 10.15 46.35 10.15 46.45 10 46.45 10 53.55 10.15 53.55 10.15 53.65 11.95 53.6 Q 15.85 53.7 18 55.2 19.6 56.3 20.45 58.35 20.85 59.35 20.5 62.8 20.4 63.9 19.9 67.4 19.25 71.9 19.05 74 18.7 78 19.05 81 19.85 89 25.55 92.35 27.65 93.6 30.55 94.2 33.25 94.8 36.75 94.9 L 38.65 95 38.85 87.85 37 87.75 Q 34.25 87.7 32.3 87.25 30.55 86.9 29.45 86.2 26.85 84.7 26.45 79.9 26.2 77.2 26.75 72.55 26.95 71.15 27.3 68.35 27.75 65.5 27.8 65.35 28.05 63.4 28.1 61.95 28.35 57.95 27.4 55.7 25.9 52.2 23.2 50 25.9 47.8 27.4 44.3 28.35 42.05 28.1 38 28.05 36.55 27.8 34.65 27.75 34.5 27.3 31.65 26.85 28.35 26.75 27.6 26.45 24.9 26.35 22.8 26.25 16.9 28.35 14.65 28.85 14.15 29.45 13.75 30.55 13.1 32.3 12.75 34.25 12.3 37 12.2 L 38.85 12.15 38.65 5 36.75 5.05 M 88.1 46.45 Q 84.2 46.3 82.05 44.75 80.45 43.65 79.6 41.6 79.2 40.6 79.55 37.2 79.65 36.05 80.15 32.6 80.8 28.05 81 25.95 81.35 21.95 81 18.95 80.2 10.95 74.5 7.65 72.35 6.35 69.45 5.75 66.85 5.15 63.3 5.05 L 61.4 5 61.2 12.15 63.05 12.2 Q 65.8 12.3 67.75 12.75 69.45 13.1 70.55 13.75 73.2 15.25 73.6 20.05 73.85 22.8 73.3 27.4 73.1 28.8 72.7 31.65 72.3 34.5 72.3 34.65 72 36.55 71.95 38 71.65 42.05 72.65 44.3 74.15 47.8 76.85 50 74.15 52.2 72.65 55.7 71.65 57.95 71.95 61.95 72 63.4 72.3 65.35 72.3 65.45 72.7 68.35 73.2 71.65 73.3 72.35 73.6 75.05 73.65 77.2 73.8 83.05 71.65 85.35 71.15 85.85 70.55 86.2 69.45 86.9 67.75 87.25 65.8 87.7 63.05 87.75 L 61.2 87.85 61.4 95 63.3 94.9 Q 66.85 94.8 69.45 94.2 72.35 93.6 74.5 92.35 80.2 89 81 81 81.35 78 81 74 80.8 71.9 80.15 67.4 79.65 63.9 79.55 62.8 79.2 59.35 79.6 58.35 80.45 56.3 82.05 55.2 84.2 53.7 88.1 53.6 L 89.85 53.65 89.85 53.55 90 53.55 90 46.45 89.85 46.45 89.85 46.35 88.1 46.45 Z"/>
      </g>
      
      <!-- php -->
      <g id="php">
         <path d="M48.9,57.2c-1.8,0-3-1.3-3.3-3l-0.6-4c-0.3-2,0.8-3.4,2.8-3.6c5.3-0.7,7.7-2.3,7.7-5.3v-0.1c0-2.7-2.1-4.3-5.6-4.3  c-2.6,0-4.8,0.8-7,2.4c-0.7,0.5-1.7,1-2.7,1c-2.3,0-4.2-1.9-4.2-4.2c0-1.1,0.5-2.4,1.6-3.3c3.2-2.7,7.3-4.4,12.6-4.4  c8.7,0,14.6,4.5,14.6,12.5V41c0,7.7-5.3,10.8-11.9,12.2l-0.2,1.1c-0.2,1.6-1.5,3-3.3,3L48.9,57.2L48.9,57.2z M48.9,61.2  c3,0,5.3,2.2,5.3,5.1v0.1c0,2.9-2.2,5.1-5.3,5.1c-3,0-5.3-2.2-5.3-5.1v-0.1C43.6,63.4,45.8,61.2,48.9,61.2z"/>
         <path d="M24.1,69.1l-16-11.3c-1.8-1.3-2.9-3.3-2.9-6V51c0-2.8,1.1-4.7,2.9-6l16-11.3c0.6-0.4,1.1-0.7,1.8-0.7  c1.5-0.1,2.9,1.9,2.9,4.5c0,2.1-0.8,3.5-2,4.3l-14.4,9.6L26.8,61c1.2,0.8,2,2.5,2,4.5c0,2.6-1.4,4.5-3.1,4.4  C25.1,69.7,24.6,69.4,24.1,69.1z"/>
         <path d="M75.9,33.6l16,11.3c1.8,1.3,2.9,3.3,2.9,6v0.7c0,2.8-1.1,4.7-2.9,6L75.9,69c-0.6,0.4-1.1,0.7-1.8,0.7  c-1.5,0.1-2.9-1.9-2.9-4.5c0-2.1,0.8-3.5,2-4.3l14.4-9.6l-14.4-9.6c-1.2-0.8-2-2.5-2-4.5c0-2.6,1.4-4.5,3.1-4.4  C74.9,33,75.4,33.3,75.9,33.6z"/>
      </g>

      <!-- html -->
      <g id="html">
         <polygon points="19.937,10.508 17.653,8.212 1.012,24.792 17.647,41.428 19.94,39.135 5.603,24.794  "/>
         <polygon points="29.714,10.508 44.046,24.794 29.711,39.135 32.004,41.428 48.637,24.792 32.001,8.212  "/>
      </g>

      <!-- git -->
      <g id="git">
         <path style="baseline-shift:baseline;block-progression:tb;color:#000000;direction:ltr;text-indent:0;enable-background:accumulate;text-transform:none;" d="M27.5,4.9688c-7.132,0-12.969,5.9302-12.969,13.062,0,5.736,3.777,10.611,8.969,12.313v39.281c-5.192,1.716-8.969,6.67-8.969,12.406,0,7.133,5.837,12.969,12.969,12.969s13-5.836,13-12.969c0-5.736-3.808-10.69-9-12.406v-0.625c0-5.929,1.815-8.24,5.156-10.344,3.341-2.103,8.602-3.393,14.282-4.781,5.679-1.388,11.839-2.905,16.937-6.719,4.632-3.465,7.961-9.08,8.531-16.781,5.24-1.673,9.094-6.573,9.094-12.344,0-7.132-5.868-13.062-13-13.062s-12.969,5.9302-12.969,13.062c0,5.701,3.732,10.551,8.875,12.281-0.422,5.483-2.394,8.262-5.344,10.469-3.339,2.499-8.429,3.982-14,5.344-5.57,1.362-11.559,2.572-16.656,5.781-0.306,0.193-0.61,0.382-0.906,0.594v-22.156c5.192-1.702,9-6.577,9-12.313,0-7.132-5.868-13.062-13-13.062zm0,8.0312c2.809,0,5.031,2.222,5.031,5.031s-2.222,4.938-5.031,4.938-5-2.129-5-4.938,2.191-5.031,5-5.031zm45,0c2.809,0,5.031,2.222,5.031,5.031s-2.222,4.938-5.031,4.938-5-2.129-5-4.938,2.191-5.031,5-5.031zm-45,64c2.809,0,5.031,2.222,5.031,5.031s-2.222,4.938-5.031,4.938-5-2.129-5-4.938,2.191-5.031,5-5.031z"/>
      </g>

      <!-- solid -->
      <g id="solid">
         <g><path d="M80.401,96H19.154C15.209,96,12,92.791,12,88.848V7.152C12,3.209,15.209,0,19.154,0h61.247   C84.449,0,88,3.342,88,7.152v81.695C88,92.658,84.449,96,80.401,96z M19.154,4C17.415,4,16,5.414,16,7.152v81.695   C16,90.586,17.415,92,19.154,92h61.247C82.251,92,84,90.468,84,88.848V7.152C84,5.532,82.251,4,80.401,4H19.154z"/></g><g><rect x="28" y="62" width="43" height="4"/></g><g><rect x="34" y="72" width="31" height="4"/></g><g><rect x="70" y="29" width="15" height="4"/></g><g><rect x="15" y="29" width="15" height="4"/></g><g><path d="M50,47c-8.822,0-16-7.178-16-16s7.178-16,16-16s16,7.178,16,16S58.822,47,50,47z M50,19   c-6.617,0-12,5.383-12,12s5.383,12,12,12s12-5.383,12-12S56.617,19,50,19z"/></g><g><path d="M48.944,36.939c-1.08,0-2.076-0.532-2.677-1.434l-2.931-4.396c-0.613-0.919-0.364-2.161,0.555-2.773   c0.918-0.614,2.161-0.364,2.773,0.555l2.247,3.37l4.374-7.29c0.569-0.946,1.796-1.255,2.744-0.686   c0.947,0.568,1.254,1.797,0.686,2.744l-5.008,8.348c-0.572,0.952-1.575,1.536-2.685,1.562   C48.996,36.939,48.97,36.939,48.944,36.939z"/></g>
      </g>

      <!-- raspberry-pi -->
      <g id="raspberry-pi">
         <path d="M93.48,41.952h-3.174V28.52c0-2.741-2.229-4.971-4.97-4.971H71.584v-2.898c0-0.111-0.09-0.2-0.2-0.2h-7.643  c-0.11,0-0.2,0.089-0.2,0.2v2.898h-9.158v-2.987c0-1.104-0.896-2-2-2h-3.75c-1.104,0-2,0.896-2,2v2.987H10.158  c-2.741,0-4.971,2.23-4.971,4.971v44.908c0,2.742,2.23,4.971,4.971,4.971h75.18c2.741,0,4.971-2.229,4.971-4.971V55.217h3.172  c0.688,0,1.25-0.56,1.25-1.251V43.203C94.73,42.514,94.169,41.952,93.48,41.952z M87.822,41.952h-9.234  c-0.688,0-1.25,0.562-1.25,1.25v10.763c0,0.691,0.562,1.251,1.25,1.251h9.234v18.211c0,1.371-1.115,2.486-2.484,2.486H56.234v-8.769  c0-0.676-0.549-1.226-1.226-1.226H42.852c-0.676,0-1.227,0.55-1.227,1.226v8.769H10.158c-1.052,0-1.948-0.66-2.311-1.586h3.102  c0.631,0,1.144-0.515,1.144-1.146v-5.058c0-0.631-0.513-1.146-1.144-1.146H7.673V31.073h31.161v-5.039h6.742v10.261  c0,0.512,0.416,0.93,0.93,0.93h8.006c0.512,0,0.93-0.417,0.93-0.93v-10.26h6.185v9.403H73.5v-9.403h11.838  c1.369,0,2.484,1.115,2.484,2.485V41.952z"/><path d="M34.124,55.555c0,0.396,0.32,0.717,0.717,0.717h12.902c0.396,0,0.717-0.32,0.717-0.717V42.653  c0-0.396-0.32-0.717-0.717-0.717H34.84c-0.396,0-0.717,0.321-0.717,0.717V55.555z"/><path d="M16.383,60.035c0,0.396,0.321,0.717,0.717,0.717h2.688c0.396,0,0.717-0.321,0.717-0.717v-20.07  c0-0.396-0.321-0.717-0.717-0.717H17.1c-0.396,0-0.717,0.321-0.717,0.717V60.035z"/>
      </g>
   </defs>
</svg>